<svg xmlns="http://www.w3.org/2000/svg"  viewBox="0 0 16 16" width="64px" height="64px"><path d="M 1 1.015625 L 1 13.994141 L 14 13.994141 L 14 1.015625 L 1 1.015625 z M 2.96875 3.2734375 L 3.5429688 3.2734375 L 3.5429688 4.5957031 C 3.5429688 4.8447031 3.46775 5.0439688 3.34375 5.1679688 C 3.21975 5.2919687 3.0185313 5.3671875 2.7695312 5.3671875 C 2.3955312 5.3921875 2.195875 5.2439219 2.046875 5.0449219 L 2.421875 4.6953125 C 2.521875 4.8203125 2.6191406 4.8945312 2.7441406 4.8945312 C 2.8941406 4.8945312 2.96875 4.7947031 2.96875 4.5957031 L 2.96875 3.2734375 z M 3.6679688 3.2988281 L 5.3378906 3.2988281 L 5.3378906 3.7734375 L 4.2402344 3.7734375 L 4.2402344 4.0976562 L 5.2363281 4.0976562 L 5.2363281 4.546875 L 4.2402344 4.546875 L 4.2402344 4.8691406 L 5.3613281 4.8691406 L 5.3613281 5.3691406 L 3.6914062 5.3691406 L 3.6679688 3.2988281 z M 5.4628906 3.2988281 L 7.28125 3.2988281 L 7.28125 3.7988281 L 6.6582031 3.7988281 L 6.6582031 5.3671875 L 6.0859375 5.3671875 L 6.0859375 3.7988281 L 5.4628906 3.7988281 L 5.4628906 3.2988281 z M 11.667969 5.8164062 C 12.016969 5.8164062 12.291625 5.9158437 12.515625 6.0898438 L 12.216797 6.4902344 C 12.017797 6.3652344 11.818531 6.2910156 11.644531 6.2910156 C 11.494531 6.2910156 11.445313 6.3410156 11.445312 6.4160156 C 11.445312 6.5160156 11.520922 6.5412344 11.794922 6.6152344 C 12.268922 6.7152344 12.566406 6.8646719 12.566406 7.2636719 C 12.565406 7.6866719 12.24275 7.9355469 11.71875 7.9355469 C 11.34475 7.9605469 10.995094 7.8353281 10.746094 7.6113281 L 11.070312 7.2363281 C 11.269312 7.4103281 11.493187 7.4863281 11.742188 7.4863281 C 11.892188 7.4863281 11.992188 7.4359375 11.992188 7.3359375 C 11.992188 7.2359375 11.916578 7.2107188 11.642578 7.1367188 C 11.193578 7.0367188 10.869141 6.9122812 10.869141 6.4882812 C 10.869141 6.1142813 11.168969 5.8164062 11.667969 5.8164062 z M 2.0976562 5.8417969 L 3.1699219 5.8417969 C 3.4189219 5.8417969 3.6181875 5.916625 3.7421875 6.015625 C 3.8171875 6.090625 3.8671875 6.2132812 3.8671875 6.3632812 C 3.8671875 6.6122812 3.7419687 6.7378906 3.5429688 6.8378906 C 3.7919687 6.9128906 3.9414062 7.0638906 3.9414062 7.3378906 C 3.9414062 7.6868906 3.6419688 7.9101562 3.1679688 7.9101562 L 2.0976562 7.9101562 L 2.0976562 5.8417969 z M 4.0410156 5.8417969 L 5.0136719 5.8417969 C 5.3376719 5.8417969 5.5355469 5.9154531 5.6855469 6.0644531 C 5.8105469 6.1894531 5.8613281 6.3400625 5.8613281 6.5390625 C 5.8613281 6.8630625 5.6875 7.0625 5.4375 7.1875 L 5.7578125 7.6523438 L 6.5332031 5.8417969 L 7.0820312 5.8417969 L 7.953125 7.9355469 L 7.3300781 7.9355469 L 7.1816406 7.5605469 L 6.3847656 7.5605469 L 6.234375 7.9355469 L 5.6367188 7.9355469 L 5.6464844 7.9101562 L 5.2871094 7.9101562 L 4.8632812 7.2871094 L 4.6132812 7.2871094 L 4.6132812 7.9101562 L 4.0410156 7.9101562 L 4.0410156 5.8417969 z M 8.0292969 5.8417969 L 8.6015625 5.8417969 L 8.6015625 7.9101562 L 8.0292969 7.9101562 L 8.0292969 5.8417969 z M 8.7519531 5.8417969 L 9.2753906 5.8417969 L 10.121094 6.9375 L 10.121094 5.8417969 L 10.695312 5.8417969 L 10.695312 7.9101562 L 10.197266 7.9101562 L 9.3242188 6.7890625 L 9.3242188 7.9355469 L 8.7519531 7.9355469 L 8.7519531 5.8417969 z M 2.6699219 6.3164062 L 2.6699219 6.6894531 L 3.0195312 6.6894531 C 3.1935312 6.6634531 3.2929688 6.6142344 3.2929688 6.4902344 C 3.2929688 6.3652344 3.1939219 6.3164062 3.0449219 6.3164062 L 2.6699219 6.3164062 z M 4.6132812 6.3398438 L 4.6132812 6.8398438 L 4.9882812 6.8398438 C 5.1872812 6.8398438 5.2871094 6.7388438 5.2871094 6.5898438 C 5.2871094 6.4148438 5.1632813 6.3398437 4.9882812 6.3398438 L 4.6132812 6.3398438 z M 6.8085938 6.515625 L 6.5820312 7.0878906 L 7.03125 7.0878906 L 6.8085938 6.515625 z M 2.6445312 7.0878906 L 2.6445312 7.4628906 L 3.09375 7.4628906 C 3.26775 7.4628906 3.3671875 7.3876719 3.3671875 7.2636719 C 3.3671875 7.1386719 3.26775 7.0878906 3.09375 7.0878906 L 2.6445312 7.0878906 z M 2.0976562 12.023438 L 6.8574219 12.023438 L 6.8574219 12.820312 L 2.0976562 12.820312 L 2.0976562 12.023438 z"/></svg>